<mxfile host="app.diagrams.net" modified="2024-01-09T23:54:54.231Z" agent="Mozilla/5.0 (Windows NT 10.0; Win64; x64) AppleWebKit/537.36 (KHTML, like Gecko) Chrome/120.0.0.0 Safari/537.36" etag="HWYGeaIcjVb3PM-hN2Zq" version="22.1.17" type="device">
  <diagram name="Page-1" id="YDHhIk46RyTXh9LSPzu3">
    <mxGraphModel dx="882" dy="578" grid="1" gridSize="10" guides="1" tooltips="1" connect="1" arrows="1" fold="1" page="1" pageScale="1" pageWidth="850" pageHeight="1100" math="0" shadow="0">
      <root>
        <mxCell id="0" />
        <mxCell id="1" parent="0" />
        <mxCell id="hH-htTxVrFFnzAHh6rzm-9" style="edgeStyle=orthogonalEdgeStyle;rounded=0;orthogonalLoop=1;jettySize=auto;html=1;exitX=0.5;exitY=1;exitDx=0;exitDy=0;entryX=0.5;entryY=0;entryDx=0;entryDy=0;" edge="1" parent="1" source="hH-htTxVrFFnzAHh6rzm-1" target="hH-htTxVrFFnzAHh6rzm-2">
          <mxGeometry relative="1" as="geometry" />
        </mxCell>
        <mxCell id="hH-htTxVrFFnzAHh6rzm-1" value="User" style="rounded=1;whiteSpace=wrap;html=1;" vertex="1" parent="1">
          <mxGeometry x="160" y="80" width="120" height="60" as="geometry" />
        </mxCell>
        <mxCell id="hH-htTxVrFFnzAHh6rzm-10" style="edgeStyle=orthogonalEdgeStyle;rounded=0;orthogonalLoop=1;jettySize=auto;html=1;exitX=0.5;exitY=1;exitDx=0;exitDy=0;" edge="1" parent="1" source="hH-htTxVrFFnzAHh6rzm-2" target="hH-htTxVrFFnzAHh6rzm-3">
          <mxGeometry relative="1" as="geometry" />
        </mxCell>
        <mxCell id="hH-htTxVrFFnzAHh6rzm-2" value="Application" style="rounded=1;whiteSpace=wrap;html=1;" vertex="1" parent="1">
          <mxGeometry x="160" y="200" width="120" height="60" as="geometry" />
        </mxCell>
        <mxCell id="hH-htTxVrFFnzAHh6rzm-16" style="edgeStyle=orthogonalEdgeStyle;rounded=0;orthogonalLoop=1;jettySize=auto;html=1;exitX=1;exitY=0.75;exitDx=0;exitDy=0;entryX=0;entryY=0.5;entryDx=0;entryDy=0;" edge="1" parent="1" source="hH-htTxVrFFnzAHh6rzm-3" target="hH-htTxVrFFnzAHh6rzm-5">
          <mxGeometry relative="1" as="geometry" />
        </mxCell>
        <mxCell id="hH-htTxVrFFnzAHh6rzm-20" style="edgeStyle=orthogonalEdgeStyle;rounded=0;orthogonalLoop=1;jettySize=auto;html=1;exitX=0.75;exitY=1;exitDx=0;exitDy=0;" edge="1" parent="1" source="hH-htTxVrFFnzAHh6rzm-3" target="hH-htTxVrFFnzAHh6rzm-7">
          <mxGeometry relative="1" as="geometry" />
        </mxCell>
        <mxCell id="hH-htTxVrFFnzAHh6rzm-22" style="edgeStyle=orthogonalEdgeStyle;rounded=0;orthogonalLoop=1;jettySize=auto;html=1;exitX=0.25;exitY=1;exitDx=0;exitDy=0;entryX=0.5;entryY=0;entryDx=0;entryDy=0;" edge="1" parent="1" source="hH-htTxVrFFnzAHh6rzm-3" target="hH-htTxVrFFnzAHh6rzm-6">
          <mxGeometry relative="1" as="geometry" />
        </mxCell>
        <mxCell id="hH-htTxVrFFnzAHh6rzm-3" value="Harmful content detection service" style="rounded=1;whiteSpace=wrap;html=1;" vertex="1" parent="1">
          <mxGeometry x="160" y="320" width="120" height="60" as="geometry" />
        </mxCell>
        <mxCell id="hH-htTxVrFFnzAHh6rzm-17" style="edgeStyle=orthogonalEdgeStyle;rounded=0;orthogonalLoop=1;jettySize=auto;html=1;exitX=1;exitY=0.5;exitDx=0;exitDy=0;entryX=0;entryY=0.5;entryDx=0;entryDy=0;" edge="1" parent="1" source="hH-htTxVrFFnzAHh6rzm-4" target="hH-htTxVrFFnzAHh6rzm-8">
          <mxGeometry relative="1" as="geometry" />
        </mxCell>
        <mxCell id="hH-htTxVrFFnzAHh6rzm-4" value="Demoting service" style="rounded=1;whiteSpace=wrap;html=1;" vertex="1" parent="1">
          <mxGeometry x="480" y="280" width="120" height="60" as="geometry" />
        </mxCell>
        <mxCell id="hH-htTxVrFFnzAHh6rzm-5" value="Violation enforcement service" style="rounded=1;whiteSpace=wrap;html=1;" vertex="1" parent="1">
          <mxGeometry x="480" y="360" width="120" height="60" as="geometry" />
        </mxCell>
        <mxCell id="hH-htTxVrFFnzAHh6rzm-23" style="edgeStyle=orthogonalEdgeStyle;rounded=0;orthogonalLoop=1;jettySize=auto;html=1;exitX=0.5;exitY=0;exitDx=0;exitDy=0;entryX=0.25;entryY=1;entryDx=0;entryDy=0;" edge="1" parent="1" source="hH-htTxVrFFnzAHh6rzm-6" target="hH-htTxVrFFnzAHh6rzm-3">
          <mxGeometry relative="1" as="geometry" />
        </mxCell>
        <mxCell id="hH-htTxVrFFnzAHh6rzm-6" value="Feature preparation" style="rounded=1;whiteSpace=wrap;html=1;" vertex="1" parent="1">
          <mxGeometry x="80" y="440" width="120" height="60" as="geometry" />
        </mxCell>
        <mxCell id="hH-htTxVrFFnzAHh6rzm-21" style="edgeStyle=orthogonalEdgeStyle;rounded=0;orthogonalLoop=1;jettySize=auto;html=1;exitX=0.5;exitY=0;exitDx=0;exitDy=0;entryX=0.75;entryY=1;entryDx=0;entryDy=0;" edge="1" parent="1" source="hH-htTxVrFFnzAHh6rzm-7" target="hH-htTxVrFFnzAHh6rzm-3">
          <mxGeometry relative="1" as="geometry" />
        </mxCell>
        <mxCell id="hH-htTxVrFFnzAHh6rzm-7" value="Trained ML model" style="rounded=1;whiteSpace=wrap;html=1;" vertex="1" parent="1">
          <mxGeometry x="240" y="440" width="120" height="60" as="geometry" />
        </mxCell>
        <mxCell id="hH-htTxVrFFnzAHh6rzm-8" value="Post that need manual review" style="rounded=1;whiteSpace=wrap;html=1;" vertex="1" parent="1">
          <mxGeometry x="680" y="280" width="120" height="60" as="geometry" />
        </mxCell>
        <mxCell id="hH-htTxVrFFnzAHh6rzm-15" style="edgeStyle=orthogonalEdgeStyle;rounded=0;orthogonalLoop=1;jettySize=auto;html=1;exitX=1;exitY=0.25;exitDx=0;exitDy=0;entryX=0;entryY=0.4;entryDx=0;entryDy=0;entryPerimeter=0;" edge="1" parent="1" source="hH-htTxVrFFnzAHh6rzm-3" target="hH-htTxVrFFnzAHh6rzm-4">
          <mxGeometry relative="1" as="geometry" />
        </mxCell>
        <mxCell id="hH-htTxVrFFnzAHh6rzm-18" value="Harm detected with low confidence" style="text;html=1;strokeColor=none;fillColor=none;align=center;verticalAlign=middle;whiteSpace=wrap;rounded=0;" vertex="1" parent="1">
          <mxGeometry x="360" y="250" width="240" height="30" as="geometry" />
        </mxCell>
        <mxCell id="hH-htTxVrFFnzAHh6rzm-19" value="Harm detected with high confidence" style="text;html=1;strokeColor=none;fillColor=none;align=center;verticalAlign=middle;whiteSpace=wrap;rounded=0;" vertex="1" parent="1">
          <mxGeometry x="360" y="420" width="240" height="30" as="geometry" />
        </mxCell>
      </root>
    </mxGraphModel>
  </diagram>
</mxfile>
